# xmcd
#
# Track frame offsets:
#	150
#	18237
#	35676
#	52543
#	64504
#	77221
#	91406
#	106454
#	123086
#	138409
#	155841
#	171374
#	190185
#	204112
#	217949
#	234781
#	249897
#	263505
#	279713
#	305254
#	320719
#	331176
#
# Disc length: 4568
#
# Revision: 6
# Processed by: cddbd v1.5.1PL0 Copyright (c) Steve Scherf et al.
# Submitted via: FreeRIP 2.00 
# Normalized: r4:DSETVAR1,TDELIM( - );r5:TSWAP
#
DISCID=1f11d616
DTITLE=Various Artist - Steppin Country  5
DYEAR=2001
DGENRE=Country
TTITLE0=Travis Tritt - Southbound Train
TTITLE1=Collin Raye - Completely
TTITLE2=Montgomery Gentry - - Carrying on
TTITLE3=Danni Leigh - Longnecks, Cigarettes
TTITLE4=Deryl Dodd - Time On My Hands
TTITLE5=Lisa Brokop - When You Get To Be You
TTITLE6=Billy Ray Cyrus - Crazy 'Bout You Baby
TTITLE7=Collin Raye - Couldn't Last A Moment
TTITLE8=Patty Loveless - The Last Thing On My Mind
TTITLE9=John Anderson - You Ain't Hurt Nothin' Yet
TTITLE10=Billy Ray Cyrus - Hey Elvis
TTITLE11=Joe Diffie - Poor Me
TTITLE12=Rodney Crowell - Talking To A Stranger
TTITLE13=Danni Leigh - Cruel Heart
TTITLE14=Wade Hayes - Life After Lovin' You
TTITLE15=John Anderson - Baby's Gone Home To Mama
TTITLE16=Ricochet - Why You Been Gone So Long
TTITLE17=Patty Loveless - Blame It On Your Heart
TTITLE18=Wade Hayes - I'm Lonesome Too
TTITLE19=Sweethearts Of The Rodeo - He Doesn't Tell Me Anything
TTITLE20=The Kinleys - Yeah, Yeah, Yeah
TTITLE21=Ricky Van Shelton - Hole In My Pocket
EXTD=
EXTT0=
EXTT1=
EXTT2=
EXTT3=
EXTT4=
EXTT5=
EXTT6=
EXTT7=
EXTT8=
EXTT9=
EXTT10=
EXTT11=
EXTT12=
EXTT13=
EXTT14=
EXTT15=
EXTT16=
EXTT17=
EXTT18=
EXTT19=
EXTT20=
EXTT21=
PLAYORDER=
